<?xml version="1.0" encoding="UTF-8" standalone="no"?>
<!-- Creator: CorelDRAW 2017 -->

<svg
   xmlns:dc="http://purl.org/dc/elements/1.1/"
   xmlns:cc="http://creativecommons.org/ns#"
   xmlns:rdf="http://www.w3.org/1999/02/22-rdf-syntax-ns#"
   xmlns:svg="http://www.w3.org/2000/svg"
   xmlns="http://www.w3.org/2000/svg"
   xmlns:sodipodi="http://sodipodi.sourceforge.net/DTD/sodipodi-0.dtd"
   xmlns:inkscape="http://www.inkscape.org/namespaces/inkscape"
   xml:space="preserve"
   width="264.16129mm"
   height="40.060501mm"
   version="1.1"
   style="clip-rule:evenodd;fill-rule:evenodd;image-rendering:optimizeQuality;shape-rendering:geometricPrecision;text-rendering:geometricPrecision"
   viewBox="0 0 264.16129 40.060501"
   id="svg10"
   sodipodi:docname="logo.svg"
   inkscape:version="0.92.2 (30a58d1, 2017-08-07)"><metadata
     id="metadata14"><rdf:RDF><cc:Work
         rdf:about=""><dc:format>image/svg+xml</dc:format><dc:type
           rdf:resource="http://purl.org/dc/dcmitype/StillImage" /><dc:title /></cc:Work></rdf:RDF></metadata><sodipodi:namedview
     pagecolor="#ffffff"
     bordercolor="#666666"
     borderopacity="1"
     objecttolerance="10"
     gridtolerance="10"
     guidetolerance="10"
     inkscape:pageopacity="0"
     inkscape:pageshadow="2"
     inkscape:window-width="1600"
     inkscape:window-height="845"
     id="namedview12"
     showgrid="false"
     fit-margin-top="0"
     fit-margin-left="0"
     fit-margin-right="0"
     fit-margin-bottom="0"
     inkscape:zoom="0.29734127"
     inkscape:cx="-139.00276"
     inkscape:cy="48.529511"
     inkscape:window-x="0"
     inkscape:window-y="27"
     inkscape:window-maximized="1"
     inkscape:current-layer="svg10" /><defs
     id="defs4"><style
       type="text/css"
       id="style2"><![CDATA[
    .str0 {stroke:black;stroke-width:1.5;stroke-miterlimit:22.9256}
    .fil0 {fill:none;fill-rule:nonzero}
   ]]></style></defs><path
     style="fill:none;fill-rule:nonzero;stroke:#000000;stroke-width:1.5;stroke-miterlimit:22.92560005"
     inkscape:connector-curvature="0"
     id="path7"
     d="m 15.4275,8.7792 c -2.6934,3.3753 -4.6368,6.7506 -5.83,10.1259 h 0.0511 c 4.7391,0 7.4581,0.0086 8.157,0.0256 0.6989,0.0171 1.0825,-0.0085 1.1507,-0.0767 0.0682,-0.0682 0.1193,-0.1534 0.1534,-0.2557 -0.5796,-4.1936 -1.0399,-7.049 -1.3808,-8.5661 C 17.388,8.515 17.047,7.7564 16.7061,7.7564 c -0.341,0 -0.7671,0.3409 -1.2786,1.0228 z m -4.5515,24.0875 1.1251,-0.2046 c 0.3409,0 0.5114,0.1876 0.5114,0.5626 0,1.1933 -0.2387,2.1991 -0.716,3.0173 -0.4773,0.8183 -1.0739,1.3979 -1.7899,1.7388 -1.1592,0.5796 -2.1479,0.8694 -2.9662,0.8694 -1.5683,0 -2.7446,-0.5881 -3.5288,-1.7644 -0.7841,-1.1762 -1.1762,-2.9491 -1.1762,-5.3186 0,-2.3696 0.6478,-5.4466 1.9434,-9.231 H 1.3126 c -0.3751,0 -0.5626,-0.1875 -0.5626,-0.5626 0,-0.375 0.2898,-0.9802 0.8694,-1.8155 0.5796,-0.8353 1.1933,-1.253 1.8411,-1.253 H 5.7619 C 8.1825,13.5183 11.0294,8.8644 14.3024,4.9436 15.1548,3.9208 16.2032,2.9661 17.4476,2.0797 18.6921,1.1932 19.6552,0.75 20.3371,0.75 c 0.6819,0 1.1933,0.3069 1.5342,0.9206 0.8865,1.4319 1.9264,6.6654 3.1197,15.7003 0.4091,3.8867 1.1165,7.9013 2.1223,12.0438 1.0058,4.1424 1.9349,6.5546 2.7872,7.2364 0.2046,0.1364 0.3069,0.3069 0.3069,0.5115 0,0.5114 -0.7245,0.9887 -2.1735,1.4319 -1.449,0.4432 -2.5571,0.6648 -3.3242,0.6648 -0.7671,0 -1.3553,-0.0937 -1.7644,-0.2812 -0.4091,-0.1875 -0.6648,-0.3836 -0.7671,-0.5882 -0.6137,-1.3296 -1.2274,-4.5004 -1.8411,-9.5122 L 20.0303,26.474 C 19.8939,24.8716 19.7575,23.6613 19.6211,22.843 L 19.2631,22.5873 8.5746,22.5362 c -0.4091,1.7388 -0.6137,3.256 -0.6137,4.5515 0,1.2956 0.0427,2.2417 0.1279,2.8384 0.0852,0.5966 0.3665,1.2359 0.8438,1.9178 0.4773,0.6819 1.1251,1.0228 1.9434,1.0228 z m 20.5587,5.5744 c 0.6137,-3.6822 0.9206,-8.0974 0.9206,-13.2456 0,-5.1482 -0.1534,-8.4894 -0.4603,-10.0237 0,-0.4432 0.5114,-0.6648 1.5342,-0.6648 1.5684,0 2.6082,0.5967 3.1197,1.7899 0.0341,0.1023 0.1193,0.1535 0.2557,0.1535 0.1363,0 0.2386,-0.0341 0.3068,-0.1023 1.0569,-1.091 2.6934,-1.6365 4.9096,-1.6365 2.2161,0 3.9719,0.5625 5.2675,1.6876 1.2956,1.1251 1.9434,2.7617 1.9434,4.9096 0,1.2956 -0.1108,3.1366 -0.3324,5.5232 -0.2217,2.3866 -0.3325,4.1595 -0.3325,5.3187 0,2.7616 0.4603,4.7562 1.3809,5.9835 0.1363,0.1705 0.2045,0.341 0.2045,0.5115 0,0.4432 -0.4773,0.6648 -1.4319,0.6648 -4.2277,0 -6.3415,-1.8752 -6.3415,-5.6255 0,-1.432 0.3238,-3.4265 0.9716,-5.9836 0.6478,-2.557 0.9717,-4.5004 0.9717,-5.8301 0,-2.7275 -1.1251,-4.0913 -3.3753,-4.0913 -1.091,0 -1.9178,0.3239 -2.4803,0.9717 -0.5626,0.6478 -0.878,1.3894 -0.9462,2.2247 -0.0681,0.8353 -0.1022,2.4121 -0.1022,4.7305 0,3.5458 0.1193,6.6313 0.3579,9.2566 l 0.1023,1.1251 c 0,0.9546 -0.6222,1.6962 -1.8666,2.2246 -1.2445,0.5285 -2.3184,0.7927 -3.2219,0.7927 -0.9035,0 -1.3553,-0.2216 -1.3553,-0.6648 z M 62.0683,15.1207 c 0.6137,0 1.1677,0.0767 1.6621,0.2301 0.4943,0.1535 0.7586,0.2302 0.7927,0.2302 L 64.8299,15.3253 64.6253,9.7509 C 64.5571,8.7962 64.3526,7.978 64.0116,7.2961 63.6707,6.6142 63.3639,6.171 63.0911,5.9664 L 62.6308,5.7107 C 62.4263,5.5743 62.324,5.4209 62.324,5.2504 c 0,-0.5114 0.7927,-1.108 2.378,-1.7899 1.5854,-0.6819 2.8213,-1.0228 3.7078,-1.0228 0.8864,0 1.3638,0.1875 1.4319,0.5625 0.1705,1.1592 0.2557,3.3668 0.2557,6.6228 0,3.256 -0.0767,6.4523 -0.2301,9.589 -0.1534,3.1367 -0.2301,6.691 -0.2301,10.6629 0,3.972 0.2557,6.4694 0.7671,7.4922 0.1364,0.2387 0.2046,0.4603 0.2046,0.6649 0,0.5114 -0.7331,0.7671 -2.1991,0.7671 -2.7957,0 -4.1936,-0.6649 -4.1936,-1.9945 -0.0682,-0.5455 -0.1023,-1.3894 -0.1023,-2.5315 0,-1.1422 0.1108,-3.2731 0.3324,-6.3927 0.2217,-3.1196 0.3325,-5.5232 0.3325,-7.2109 0,-1.6876 -0.8439,-2.5315 -2.5315,-2.5315 -1.6877,0 -2.9747,0.9888 -3.8612,2.9662 -0.8864,1.9775 -1.3297,3.9549 -1.3297,5.9324 0,4.1936 1.057,6.2904 3.1708,6.2904 0.3068,0 0.6052,-0.0597 0.895,-0.179 0.2898,-0.1194 0.4688,-0.179 0.5369,-0.179 0.2728,0 0.4859,0.1705 0.6393,0.5114 0.1534,0.3409 0.2301,0.6819 0.2301,1.0228 0,1.1592 -0.4602,2.1394 -1.3808,2.9406 -0.9205,0.8012 -2.0456,1.2019 -3.3753,1.2019 -2.0456,0 -3.5884,-0.895 -4.6283,-2.685 -1.0398,-1.7899 -1.5598,-4.0145 -1.5598,-6.6739 0,-3.3753 0.8012,-6.512 2.4037,-9.41 0.8182,-1.4319 1.9263,-2.5826 3.3241,-3.452 1.3979,-0.8694 2.9833,-1.3041 4.7562,-1.3041 z m 26.44,9.2566 0.2046,1.7899 c 0,0.6478 -0.6137,0.9717 -1.8411,0.9717 -2.4889,0 -3.7333,-0.9376 -3.7333,-2.8128 0,-0.4432 0.1193,-1.0569 0.358,-1.8411 0.2386,-0.7841 0.358,-1.466 0.358,-2.0456 0,-0.5796 -0.1705,-1.0825 -0.5115,-1.5087 -0.3409,-0.4262 -0.8353,-0.6392 -1.4831,-0.6392 -0.6477,0 -1.2018,0.2301 -1.662,0.6904 -0.4603,0.4602 -0.7416,0.929 -0.8439,1.4063 l -0.2045,0.716 c -0.2046,1.0569 -0.3069,2.8213 -0.3069,5.2931 0,2.4719 0.0341,4.4152 0.1023,5.8301 0.0682,1.4149 0.1364,2.3866 0.2046,2.9151 0.0682,0.5284 0.1022,0.8438 0.1022,0.9461 0,0.8523 -0.5284,1.5428 -1.5853,2.0712 -1.057,0.5285 -2.1139,0.7927 -3.1708,0.7927 -1.0569,0 -1.5854,-0.2216 -1.5854,-0.6648 l 0.2557,-1.5854 c 0.4774,-2.9662 0.716,-6.8359 0.716,-11.6091 0,-4.7731 -0.1705,-8.0121 -0.5114,-9.7168 0,-0.4091 0.358,-0.6137 1.074,-0.6137 1.8411,0 3.0684,0.6308 3.6821,1.8922 0.0341,0.1364 0.0938,0.2046 0.179,0.2046 0.0853,0 0.3154,-0.1534 0.6904,-0.4603 1.1251,-0.9205 2.4548,-1.3808 3.9891,-1.3808 0.9546,0 1.9092,0.1875 2.8639,0.5626 1.9433,0.7841 2.915,2.4207 2.915,4.9095 z M 98.174,11.5408 c -0.1705,0.1364 -0.341,0.2046 -0.5114,0.2046 -0.2728,0 -0.4092,-0.1534 -0.4092,-0.4603 l 0.1023,-0.4091 c 0.9205,-1.8411 2.1479,-3.6822 3.6822,-5.5233 0.1363,-0.1704 0.3494,-0.2557 0.6392,-0.2557 0.2898,0 0.7757,0.2472 1.4576,0.7416 0.6818,0.4943 1.0228,0.9205 1.0228,1.2785 0,0.358 -0.1534,0.6393 -0.4603,0.8438 -1.4319,1.1592 -3.273,2.3525 -5.5232,3.5799 z m -2.2502,13.5524 0.0511,1.2786 c 0,0.2045 0.1364,0.3068 0.4091,0.3068 1.091,-0.1023 2.0457,-0.3835 2.8639,-0.8438 0.8183,-0.4603 1.432,-0.9802 1.8411,-1.5598 0.8183,-1.2615 1.2615,-2.3525 1.3297,-3.2731 l 0.0511,-0.6137 c 0,-1.841 -0.733,-2.7616 -2.199,-2.7616 -1.0911,0 -1.9775,0.4773 -2.6594,1.432 -1.1251,1.5001 -1.6876,3.5117 -1.6876,6.0346 z m 11.1487,6.8018 c 0,1.2956 -0.2642,2.4292 -0.7927,3.4009 -0.5284,0.9717 -1.1251,1.6877 -1.7899,2.1479 -0.6648,0.4603 -1.4405,0.8268 -2.3269,1.0996 -1.1251,0.3409 -2.1991,0.5114 -3.2219,0.5114 -2.8639,0 -4.9778,-1.074 -6.3415,-3.2219 -1.3638,-2.1479 -2.0457,-4.884 -2.0457,-8.2082 0,-3.3242 0.8439,-6.2818 2.5315,-8.873 1.6877,-2.5911 4.2192,-3.8867 7.5945,-3.8867 3.0685,0 5.1482,1.074 6.2392,3.2219 0.4432,0.8182 0.6648,1.5939 0.6648,2.3269 0,0.733 -0.0341,1.3126 -0.1022,1.7388 -0.0682,0.4262 -0.3069,1.0655 -0.716,1.9178 -0.4091,0.8524 -0.9547,1.6195 -1.6365,2.3014 -0.6819,0.6818 -1.7559,1.3296 -3.2219,1.9433 -1.4661,0.6137 -3.1878,1.0229 -5.1653,1.2274 -0.2727,0 -0.4091,0.1193 -0.4091,0.358 0,0.3069 0.1108,0.7586 0.3324,1.3552 0.2216,0.5967 0.4688,1.0996 0.7415,1.5087 0.7501,0.9547 1.8582,1.432 3.3242,1.432 1.4661,0 2.7105,-0.4773 3.7333,-1.432 0.5455,-0.5114 0.9888,-1.1421 1.3297,-1.8922 0.1364,-0.2728 0.3154,-0.4091 0.537,-0.4091 0.2216,0 0.4006,0.1875 0.537,0.5625 0.1363,0.375 0.2045,0.6648 0.2045,0.8694 z m 19.536,-16.8254 0.0511,6.3926 -0.2045,8.8474 c 0.0341,0.1364 0.0852,0.2046 0.1534,0.2046 0.0682,0 0.1193,-0.0341 0.1534,-0.1023 0.6819,-0.9546 1.5257,-1.4319 2.5315,-1.4319 1.0058,0 1.5087,0.2045 1.5087,0.6137 0,1.2955 0.2472,2.2928 0.7415,2.9917 0.4944,0.699 1.1933,1.0484 2.0968,1.0484 0.9035,0 1.7729,-0.6137 2.6082,-1.8411 0.8353,-1.2274 1.253,-2.8639 1.253,-4.9095 0,-0.6819 -0.1364,-1.5002 -0.4092,-2.4548 -0.5455,-1.9093 -1.5683,-3.1878 -3.0684,-3.8356 -1.091,-0.4432 -2.8639,-0.6648 -5.3187,-0.6648 -0.2728,0 -0.4091,-0.1875 -0.4091,-0.5626 0,-1.9093 0.3409,-2.898 1.0228,-2.9662 0.9205,0 1.8922,-0.2386 2.915,-0.7159 2.0457,-0.9547 3.0685,-2.9151 3.0685,-5.8813 0,-3.2048 -1.8411,-4.8073 -5.5233,-4.8073 l -1.5853,0.1023 c -0.6137,0.1364 -0.9547,0.3921 -1.0229,0.7671 v 0.1535 c -0.375,1.3637 -0.5625,4.3811 -0.5625,9.052 z m -7.5178,23.7295 0.1023,-0.5626 c 0.341,-0.6137 0.6308,-3.1111 0.8694,-7.4922 0.2387,-4.3811 0.358,-8.4724 0.358,-12.2739 0,-3.8014 -0.0767,-6.8529 -0.2301,-9.1542 -0.1535,-2.3014 -0.5711,-3.9635 -1.253,-4.9863 -0.1364,-0.1705 -0.2046,-0.375 -0.2046,-0.6137 0,-0.2386 0.2046,-0.4432 0.6137,-0.6137 2.7958,-1.091 6.5973,-1.6365 11.4045,-1.6365 1.1933,0 2.4889,0.1619 3.8868,0.4858 1.3978,0.3239 2.5485,0.7245 3.452,1.2019 0.9035,0.4773 1.7217,1.2103 2.4548,2.199 0.733,0.9888 1.1506,2.165 1.2529,3.5288 0,4.9436 -2.0456,7.7905 -6.1369,8.5406 -0.2046,0.0681 -0.3069,0.1449 -0.3069,0.2301 0,0.0852 0.0853,0.179 0.2557,0.2813 2.1139,0.3409 3.8868,1.1933 5.3187,2.557 0.716,0.6478 1.3638,1.6536 1.9434,3.0174 0.5796,1.3637 0.8694,2.9321 0.8694,4.7049 0,2.2844 -0.6648,4.4493 -1.9945,6.495 -1.091,1.6706 -2.6764,2.8639 -4.7561,3.5799 -1.1592,0.4091 -2.4548,0.6137 -3.8868,0.6137 -3.5799,0 -5.8471,-1.1422 -6.8018,-3.4265 -0.034,-0.1023 -0.0852,-0.1534 -0.1534,-0.1534 l -0.2045,0.2045 c -0.716,2.3866 -2.7617,3.6311 -6.137,3.7333 -0.4773,0 -0.716,-0.1534 -0.716,-0.4602 z m 42.2427,-14.4218 0.2046,1.7899 c 0,0.6478 -0.6137,0.9717 -1.8411,0.9717 -2.4889,0 -3.7333,-0.9376 -3.7333,-2.8128 0,-0.4432 0.1193,-1.0569 0.358,-1.8411 0.2386,-0.7841 0.358,-1.466 0.358,-2.0456 0,-0.5796 -0.1705,-1.0825 -0.5115,-1.5087 -0.3409,-0.4262 -0.8353,-0.6392 -1.4831,-0.6392 -0.6477,0 -1.2018,0.2301 -1.662,0.6904 -0.4603,0.4602 -0.7416,0.929 -0.8439,1.4063 l -0.2045,0.716 c -0.2046,1.0569 -0.3069,2.8213 -0.3069,5.2931 0,2.4719 0.0341,4.4152 0.1023,5.8301 0.0682,1.4149 0.1364,2.3866 0.2046,2.9151 0.0682,0.5284 0.1022,0.8438 0.1022,0.9461 0,0.8523 -0.5284,1.5428 -1.5853,2.0712 -1.057,0.5285 -2.1139,0.7927 -3.1708,0.7927 -1.0569,0 -1.5854,-0.2216 -1.5854,-0.6648 l 0.2557,-1.5854 c 0.4774,-2.9662 0.716,-6.8359 0.716,-11.6091 0,-4.7731 -0.1705,-8.0121 -0.5114,-9.7168 0,-0.4091 0.358,-0.6137 1.074,-0.6137 1.8411,0 3.0684,0.6308 3.6821,1.8922 0.0341,0.1364 0.0938,0.2046 0.179,0.2046 0.0853,0 0.3154,-0.1534 0.6904,-0.4603 1.1251,-0.9205 2.4548,-1.3808 3.9891,-1.3808 0.9546,0 1.9092,0.1875 2.8639,0.5626 1.9433,0.7841 2.915,2.4207 2.915,4.9095 z m 18.462,-1.6366 -0.1023,6.5461 c 0,4.5345 0.4944,7.2621 1.4831,8.1826 0.1364,0.1364 0.2046,0.2898 0.2046,0.4603 0,0.5114 -1.0996,0.7671 -3.2986,0.7671 -2.1991,0 -3.3668,-0.6478 -3.5032,-1.9434 -0.0341,-0.3068 -0.0511,-0.9376 -0.0511,-1.8922 l 0.2045,-8.1826 c 0,-0.2386 -0.1364,-0.358 -0.4091,-0.358 -1.6365,0 -3.1708,0.4603 -4.6027,1.3808 -1.432,0.9206 -2.1479,2.0968 -2.1479,3.5288 0,0.75 0.2045,1.3808 0.6136,1.8922 0.4092,0.5114 0.9121,0.7671 1.5087,0.7671 0.5967,0 1.091,-0.1193 1.4831,-0.358 0.3921,-0.2386 0.6222,-0.375 0.6904,-0.4091 0.5796,0.0682 0.8694,0.6734 0.8694,1.8155 0,1.1422 -0.5284,2.0627 -1.5854,2.7616 -1.0569,0.699 -2.1649,1.0484 -3.3241,1.0484 -1.1592,0 -2.1565,-0.2045 -2.9918,-0.6137 -0.8353,-0.4091 -1.4405,-0.8694 -1.8155,-1.3808 -0.3751,-0.5114 -0.6819,-1.091 -0.9206,-1.7388 -0.2386,-0.7841 -0.3579,-1.466 -0.3579,-2.0456 0,-2.3866 0.75,-4.2959 2.2502,-5.7278 1.5001,-1.432 3.4264,-2.4548 5.7789,-3.0685 3.1026,-0.6137 4.7221,-1.1763 4.8584,-1.6877 0.1023,-0.375 0.1535,-1.0057 0.1535,-1.8922 0,-1.807 -0.9206,-2.7105 -2.7617,-2.7105 -0.7841,0 -1.4831,0.2472 -2.0968,0.7416 -0.6136,0.4943 -0.9205,1.1166 -0.9205,1.8666 l 0.3069,1.2274 c -0.0682,0.5796 -0.6819,0.9206 -1.8411,1.0228 l -0.5626,0.0512 c -1.0228,0 -1.8325,-0.2557 -2.4292,-0.7671 -0.5966,-0.5114 -0.895,-1.1933 -0.895,-2.0457 0,-0.5455 0.179,-1.1507 0.537,-1.8155 0.358,-0.6648 0.8098,-1.2018 1.3553,-1.6109 0.5455,-0.4092 1.3893,-0.7757 2.5315,-1.0996 1.1421,-0.3239 2.2416,-0.4858 3.2986,-0.4858 1.0569,0 1.8751,0.0341 2.4547,0.1023 0.5796,0.0681 1.3723,0.2301 2.3781,0.4858 1.0058,0.2557 1.8411,0.7415 2.5059,1.4575 0.6649,0.716 1.0228,1.4746 1.074,2.2758 0.0511,0.8012 0.0767,1.9519 0.0767,3.452 z m 3.1196,15.7004 c 0.6137,-3.6822 0.9206,-8.0974 0.9206,-13.2456 0,-5.1482 -0.1534,-8.4894 -0.4603,-10.0237 0,-0.4432 0.5114,-0.6648 1.5342,-0.6648 1.5684,0 2.6082,0.5967 3.1197,1.7899 0.0341,0.1023 0.1193,0.1535 0.2557,0.1535 0.1363,0 0.2386,-0.0341 0.3068,-0.1023 1.0569,-1.091 2.6934,-1.6365 4.9096,-1.6365 2.2161,0 3.9719,0.5625 5.2675,1.6876 1.2956,1.1251 1.9434,2.7617 1.9434,4.9096 0,1.2956 -0.1108,3.1366 -0.3324,5.5232 -0.2217,2.3866 -0.3325,4.1595 -0.3325,5.3187 0,2.7616 0.4603,4.7562 1.3809,5.9835 0.1363,0.1705 0.2045,0.341 0.2045,0.5115 0,0.4432 -0.4773,0.6648 -1.4319,0.6648 -4.2277,0 -6.3415,-1.8752 -6.3415,-5.6255 0,-1.432 0.3238,-3.4265 0.9716,-5.9836 0.6478,-2.557 0.9717,-4.5004 0.9717,-5.8301 0,-2.7275 -1.1251,-4.0913 -3.3753,-4.0913 -1.091,0 -1.9178,0.3239 -2.4803,0.9717 -0.5626,0.6478 -0.878,1.3894 -0.9462,2.2247 -0.0681,0.8353 -0.1022,2.4121 -0.1022,4.7305 0,3.5458 0.1193,6.6313 0.3579,9.2566 l 0.1023,1.1251 c 0,0.9546 -0.6222,1.6962 -1.8666,2.2246 -1.2445,0.5285 -2.3184,0.7927 -3.2219,0.7927 -0.9035,0 -1.3553,-0.2216 -1.3553,-0.6648 z m 30.6336,-23.3204 c 0.6137,0 1.1677,0.0767 1.6621,0.2301 0.4943,0.1535 0.7586,0.2302 0.7927,0.2302 l 0.3068,-0.2557 -0.2046,-5.5744 C 216.0374,8.7962 215.8329,7.978 215.4919,7.2961 215.151,6.6142 214.8442,6.171 214.5714,5.9664 l -0.4603,-0.2557 c -0.2045,-0.1364 -0.3068,-0.2898 -0.3068,-0.4603 0,-0.5114 0.7927,-1.108 2.378,-1.7899 1.5854,-0.6819 2.8213,-1.0228 3.7078,-1.0228 0.8864,0 1.3638,0.1875 1.4319,0.5625 0.1705,1.1592 0.2557,3.3668 0.2557,6.6228 0,3.256 -0.0767,6.4523 -0.2301,9.589 -0.1534,3.1367 -0.2301,6.691 -0.2301,10.6629 0,3.972 0.2557,6.4694 0.7671,7.4922 0.1364,0.2387 0.2046,0.4603 0.2046,0.6649 0,0.5114 -0.7331,0.7671 -2.1991,0.7671 -2.7957,0 -4.1936,-0.6649 -4.1936,-1.9945 -0.0682,-0.5455 -0.1023,-1.3894 -0.1023,-2.5315 0,-1.1422 0.1108,-3.2731 0.3324,-6.3927 0.2217,-3.1196 0.3325,-5.5232 0.3325,-7.2109 0,-1.6876 -0.8439,-2.5315 -2.5315,-2.5315 -1.6877,0 -2.9747,0.9888 -3.8612,2.9662 -0.8864,1.9775 -1.3297,3.9549 -1.3297,5.9324 0,4.1936 1.057,6.2904 3.1708,6.2904 0.3068,0 0.6052,-0.0597 0.895,-0.179 0.2898,-0.1194 0.4688,-0.179 0.5369,-0.179 0.2728,0 0.4859,0.1705 0.6393,0.5114 0.1534,0.3409 0.2301,0.6819 0.2301,1.0228 0,1.1592 -0.4602,2.1394 -1.3808,2.9406 -0.9205,0.8012 -2.0456,1.2019 -3.3753,1.2019 -2.0456,0 -3.5884,-0.895 -4.6283,-2.685 -1.0398,-1.7899 -1.5598,-4.0145 -1.5598,-6.6739 0,-3.3753 0.8012,-6.512 2.4037,-9.41 0.8182,-1.4319 1.9263,-2.5826 3.3241,-3.452 1.3979,-0.8694 2.9833,-1.3041 4.7562,-1.3041 z m 18.1551,-6.5461 5.1653,0.4092 c 0.6819,0 1.1762,-0.0512 1.4831,-0.1535 0.3068,-0.1022 0.4773,-0.1534 0.5114,-0.1534 0.2046,0 0.3068,0.0852 0.3068,0.2557 0,0.5114 -0.3324,1.074 -0.9972,1.6877 -0.6648,0.6137 -1.3126,0.9205 -1.9434,0.9205 -0.6307,0 -1.4319,-0.1193 -2.4036,-0.358 -0.9717,-0.2386 -1.7814,-0.358 -2.4292,-0.358 -0.6478,0 -1.2018,0.0512 -1.6621,0.1535 -0.4603,0.1022 -0.8268,0.2045 -1.0995,0.3068 -0.2728,0.1023 -0.4603,0.1534 -0.5626,0.1534 -0.1023,0 -0.1534,-0.1363 -0.1534,-0.4091 0,-0.2727 0.3835,-0.7501 1.1507,-1.4319 0.7671,-0.6819 1.645,-1.0229 2.6337,-1.0229 z m 9.768,14.1661 -0.1023,6.5461 c 0,4.5345 0.4944,7.2621 1.4831,8.1826 0.1364,0.1364 0.2046,0.2898 0.2046,0.4603 0,0.5114 -1.0996,0.7671 -3.2986,0.7671 -2.1991,0 -3.3668,-0.6478 -3.5032,-1.9434 -0.0341,-0.3068 -0.0511,-0.9376 -0.0511,-1.8922 l 0.2045,-8.1826 c 0,-0.2386 -0.1364,-0.358 -0.4091,-0.358 -1.6365,0 -3.1708,0.4603 -4.6027,1.3808 -1.432,0.9206 -2.1479,2.0968 -2.1479,3.5288 0,0.75 0.2045,1.3808 0.6136,1.8922 0.4092,0.5114 0.9121,0.7671 1.5087,0.7671 0.5967,0 1.091,-0.1193 1.4831,-0.358 0.3921,-0.2386 0.6222,-0.375 0.6904,-0.4091 0.5796,0.0682 0.8694,0.6734 0.8694,1.8155 0,1.1422 -0.5284,2.0627 -1.5854,2.7616 -1.0569,0.699 -2.1649,1.0484 -3.3241,1.0484 -1.1592,0 -2.1565,-0.2045 -2.9918,-0.6137 -0.8353,-0.4091 -1.4405,-0.8694 -1.8155,-1.3808 -0.3751,-0.5114 -0.6819,-1.091 -0.9206,-1.7388 -0.2386,-0.7841 -0.3579,-1.466 -0.3579,-2.0456 0,-2.3866 0.75,-4.2959 2.2502,-5.7278 1.5001,-1.432 3.4264,-2.4548 5.7789,-3.0685 3.1026,-0.6137 4.7221,-1.1763 4.8584,-1.6877 0.1023,-0.375 0.1535,-1.0057 0.1535,-1.8922 0,-1.807 -0.9206,-2.7105 -2.7617,-2.7105 -0.7841,0 -1.4831,0.2472 -2.0968,0.7416 -0.6136,0.4943 -0.9205,1.1166 -0.9205,1.8666 l 0.3069,1.2274 c -0.0682,0.5796 -0.6819,0.9206 -1.8411,1.0228 l -0.5626,0.0512 c -1.0228,0 -1.8325,-0.2557 -2.4292,-0.7671 -0.5966,-0.5114 -0.895,-1.1933 -0.895,-2.0457 0,-0.5455 0.179,-1.1507 0.537,-1.8155 0.358,-0.6648 0.8098,-1.2018 1.3553,-1.6109 0.5455,-0.4092 1.3893,-0.7757 2.5315,-1.0996 1.1421,-0.3239 2.2416,-0.4858 3.2986,-0.4858 1.0569,0 1.8751,0.0341 2.4547,0.1023 0.5796,0.0681 1.3723,0.2301 2.3781,0.4858 1.0058,0.2557 1.8411,0.7415 2.5059,1.4575 0.6649,0.716 1.0228,1.4746 1.074,2.2758 0.0511,0.8012 0.0767,1.9519 0.0767,3.452 z m 14.5608,-3.9423 c 1.3087,0.1074 2.6176,0.3596 3.7478,0.6693 1.091,0.6137 1.9348,1.5854 2.5315,2.9151 0.5966,1.3296 0.929,2.5059 0.9972,3.5287 l 0.1023,1.5854 c 0,3.3753 -0.9376,6.154 -2.8128,8.336 -1.8751,2.182 -4.4322,3.273 -7.6711,3.273 -1.6366,0 -3.0515,-0.2898 -4.2448,-0.8694 -1.1933,-0.5796 -2.0712,-1.2359 -2.6337,-1.9689 -0.5626,-0.733 -1.0143,-1.5598 -1.3553,-2.4804 -0.4091,-1.2614 -0.6137,-2.5655 -0.6137,-3.9123 0,-1.3467 0.2302,-2.7019 0.6904,-4.0657 0.4603,-1.3638 0.9888,-2.3695 1.5854,-3.0173 0.5967,-0.6478 1.27,-1.1763 2.0201,-1.5854 0.9546,-0.5114 1.7217,-0.7671 2.3013,-0.7671 0.5796,0 0.8694,0.1193 0.8694,0.358 l -0.3068,0.5114 c -0.7501,0.8864 -1.2871,2.0456 -1.611,3.4776 -0.3238,1.4319 -0.4858,2.7019 -0.4858,3.81 0,1.1081 0.1364,2.2076 0.4091,3.2986 0.2728,1.091 0.5796,1.9008 0.9206,2.4292 0.3409,0.5285 0.733,0.9291 1.1762,1.2018 0.6478,0.4092 1.3297,0.6137 2.0457,0.6137 0.7159,0 1.4149,-0.2812 2.0968,-0.8438 0.6818,-0.5625 1.1762,-1.3041 1.4831,-2.2246 0.6136,-1.7047 0.9205,-3.4606 0.9205,-5.2676 0,-2.8639 -0.7245,-5.08 -2.1735,-6.6483 -2.0584,-2.228 -18.2126,-3.8536 0.0111,-2.357 z"
     class="fil0 str0" /></svg>